<svg xmlns="http://www.w3.org/2000/svg" width="390" height="800" viewBox="0 0 390 800" font-family="-apple-system, 'Segoe UI', Inter, sans-serif">
  <rect width="390" height="800" fill="#ffffff"/>

  <!-- topbar -->
  <text x="24" y="58" font-size="20" fill="#71717a">✕</text>
  <text x="195" y="58" font-size="15" font-weight="700" fill="#09090b" text-anchor="middle">Lesson 3 / 12</text>

  <!-- progress -->
  <rect x="24" y="76" width="342" height="4" rx="2" fill="#f0f0f2"/>
  <rect x="24" y="76" width="86" height="4" rx="2" fill="#2563eb"/>

  <!-- hero word, no plate -->
  <text x="24" y="124" font-size="11.5" font-weight="600" letter-spacing="0.8" fill="#2563eb">NOUN · HUIS</text>
  <text x="24" y="172" font-size="42" font-weight="800" fill="#09090b" letter-spacing="-1">huis</text>
  <circle cx="186" cy="158" r="16" fill="#eff6ff"/>
  <text x="186" y="164" font-size="13" text-anchor="middle">🔊</text>
  <text x="24" y="202" font-size="18" fill="#3f3f46">house, home</text>
  <text x="24" y="226" font-size="13" fill="#71717a">/ɦœys/ · huis</text>

  <line x1="24" y1="250" x2="366" y2="250" stroke="#f0f0f2"/>

  <!-- senses -->
  <text x="24" y="282" font-size="12" font-weight="700" letter-spacing="0.6" fill="#71717a">MEANINGS</text>
  <text x="24" y="308" font-size="14.5" fill="#18181b">1. a building for living in</text>
  <text x="24" y="332" font-size="14.5" fill="#18181b">2. household; family</text>

  <!-- forms table, flat hairline -->
  <text x="24" y="370" font-size="12" font-weight="700" letter-spacing="0.6" fill="#71717a">FORMS</text>
  <rect x="24" y="382" width="342" height="96" rx="12" fill="#ffffff" stroke="#e7e7ea"/>
  <text x="40" y="412" font-size="11" letter-spacing="0.4" fill="#a1a1aa">ARTICLE</text>
  <text x="350" y="412" font-size="14" font-weight="600" fill="#18181b" text-anchor="end">het</text>
  <line x1="40" y1="428" x2="350" y2="428" stroke="#f2f2f4"/>
  <text x="40" y="448" font-size="11" letter-spacing="0.4" fill="#a1a1aa">PLURAL</text>
  <text x="350" y="448" font-size="14" font-weight="600" fill="#18181b" text-anchor="end">huizen</text>
  <line x1="40" y1="464" x2="350" y2="464" stroke="#f2f2f4"/>
  <text x="40" y="484" font-size="11" letter-spacing="0.4" fill="#a1a1aa">DIMINUTIVE</text>
  <text x="350" y="484" font-size="14" font-weight="600" fill="#18181b" text-anchor="end">huisje</text>

  <!-- example -->
  <text x="24" y="524" font-size="12" font-weight="700" letter-spacing="0.6" fill="#71717a">EXAMPLE</text>
  <rect x="24" y="536" width="342" height="68" rx="12" fill="#fafafa" stroke="#f0f0f2"/>
  <text x="40" y="566" font-size="14" font-weight="600" fill="#18181b">Ik ga naar huis.</text>
  <text x="40" y="588" font-size="13" fill="#71717a">I'm going home.</text>

  <!-- nav -->
  <rect x="24" y="724" width="163" height="52" rx="12" fill="#ffffff" stroke="#e7e7ea"/>
  <text x="105" y="757" font-size="15" font-weight="600" fill="#3f3f46" text-anchor="middle">Back</text>
  <rect x="203" y="724" width="163" height="52" rx="12" fill="#2563eb"/>
  <text x="284" y="757" font-size="15" font-weight="600" fill="#ffffff" text-anchor="middle">Next</text>

  <text x="195" y="700" font-size="11" fill="#d4d4d8" text-anchor="middle">Lesson · teach</text>
</svg>
