<svg xmlns="http://www.w3.org/2000/svg" width="390" height="800" viewBox="0 0 390 800" font-family="-apple-system, 'Segoe UI', Inter, sans-serif">
  <rect width="390" height="800" fill="#ffffff"/>

  <!-- topbar: back + flat search field -->
  <text x="24" y="58" font-size="22" fill="#71717a">‹</text>
  <rect x="52" y="34" width="314" height="40" rx="12" fill="#f4f4f5"/>
  <text x="70" y="59" font-size="13" fill="#a1a1aa">🔍</text>
  <text x="90" y="59" font-size="15" fill="#18181b">huis</text>
  <text x="100" y="59" font-size="15" fill="#2563eb">|</text>

  <!-- results -->
  <g>
    <rect x="24" y="92" width="342" height="50" rx="12" fill="#ffffff" stroke="#e7e7ea"/>
    <text x="40" y="122" font-size="15" font-weight="600" fill="#18181b">huis</text>
    <text x="330" y="116" font-size="13" fill="#71717a" text-anchor="end">house, home</text>
    <text x="330" y="132" font-size="10" font-weight="700" fill="#2563eb" text-anchor="end">A1</text>

    <rect x="24" y="150" width="342" height="50" rx="12" fill="#ffffff" stroke="#e7e7ea"/>
    <text x="40" y="180" font-size="15" font-weight="600" fill="#18181b">huisarts</text>
    <text x="330" y="174" font-size="13" fill="#71717a" text-anchor="end">family doctor</text>
    <text x="330" y="190" font-size="10" font-weight="700" fill="#2563eb" text-anchor="end">A2</text>

    <rect x="24" y="208" width="342" height="50" rx="12" fill="#ffffff" stroke="#e7e7ea"/>
    <text x="40" y="238" font-size="15" font-weight="600" fill="#18181b">huishouden</text>
    <text x="330" y="232" font-size="13" fill="#71717a" text-anchor="end">household</text>
    <text x="330" y="248" font-size="10" font-weight="700" fill="#2563eb" text-anchor="end">B1</text>

    <rect x="24" y="266" width="342" height="50" rx="12" fill="#ffffff" stroke="#e7e7ea"/>
    <text x="40" y="296" font-size="15" font-weight="600" fill="#18181b">thuis</text>
    <text x="330" y="290" font-size="13" fill="#71717a" text-anchor="end">at home</text>
    <text x="330" y="306" font-size="10" font-weight="700" fill="#2563eb" text-anchor="end">A1</text>

    <rect x="24" y="324" width="342" height="50" rx="12" fill="#ffffff" stroke="#e7e7ea"/>
    <text x="40" y="354" font-size="15" font-weight="600" fill="#18181b">huiswerk</text>
    <text x="330" y="348" font-size="13" fill="#71717a" text-anchor="end">homework</text>
    <text x="330" y="364" font-size="10" font-weight="700" fill="#2563eb" text-anchor="end">A2</text>
  </g>

  <text x="195" y="784" font-size="11" fill="#d4d4d8" text-anchor="middle">Search</text>
</svg>
