<svg xmlns="http://www.w3.org/2000/svg" width="390" height="800" viewBox="0 0 390 800" font-family="-apple-system, 'Segoe UI', Inter, sans-serif">
  <rect width="390" height="800" fill="#ffffff"/>

  <!-- topbar -->
  <text x="24" y="58" font-size="22" fill="#71717a">‹</text>
  <text x="195" y="58" font-size="17" font-weight="700" fill="#09090b" text-anchor="middle" letter-spacing="-0.3">Level 3</text>

  <!-- section: Guru -->
  <text x="24" y="104" font-size="13" font-weight="700" fill="#7c3aed">Guru</text>
  <text x="62" y="104" font-size="13" font-weight="600" fill="#a1a1aa">12</text>
  <g>
    <rect x="24" y="116" width="342" height="46" rx="12" fill="#ffffff" stroke="#e7e7ea"/>
    <rect x="24" y="116" width="4" height="46" rx="2" fill="#7c3aed"/>
    <text x="40" y="144" font-size="15" font-weight="600" fill="#18181b">gezellig</text>
    <text x="350" y="144" font-size="13" fill="#71717a" text-anchor="end">cozy, sociable</text>

    <rect x="24" y="170" width="342" height="46" rx="12" fill="#ffffff" stroke="#e7e7ea"/>
    <rect x="24" y="170" width="4" height="46" rx="2" fill="#7c3aed"/>
    <text x="40" y="198" font-size="15" font-weight="600" fill="#18181b">huis</text>
    <text x="350" y="198" font-size="13" fill="#71717a" text-anchor="end">house, home</text>
  </g>

  <!-- section: Apprentice -->
  <text x="24" y="256" font-size="13" font-weight="700" fill="#db2777">Apprentice</text>
  <text x="118" y="256" font-size="13" font-weight="600" fill="#a1a1aa">8</text>
  <g>
    <rect x="24" y="268" width="342" height="46" rx="12" fill="#ffffff" stroke="#e7e7ea"/>
    <rect x="24" y="268" width="4" height="46" rx="2" fill="#db2777"/>
    <text x="40" y="296" font-size="15" font-weight="600" fill="#18181b">afspraak</text>
    <text x="350" y="296" font-size="13" fill="#71717a" text-anchor="end">appointment</text>

    <rect x="24" y="322" width="342" height="46" rx="12" fill="#ffffff" stroke="#e7e7ea"/>
    <rect x="24" y="322" width="4" height="46" rx="2" fill="#db2777"/>
    <text x="40" y="350" font-size="15" font-weight="600" fill="#18181b">vergeten</text>
    <text x="350" y="350" font-size="13" fill="#71717a" text-anchor="end">to forget</text>
  </g>

  <!-- section: Not started -->
  <text x="24" y="408" font-size="13" font-weight="700" fill="#52525b">Not started</text>
  <text x="120" y="408" font-size="13" font-weight="600" fill="#a1a1aa">14</text>
  <g>
    <rect x="24" y="420" width="342" height="46" rx="12" fill="#ffffff" stroke="#e7e7ea"/>
    <rect x="24" y="420" width="4" height="46" rx="2" fill="#d4d4d8"/>
    <text x="40" y="448" font-size="15" font-weight="600" fill="#18181b">venster</text>
    <text x="350" y="448" font-size="13" fill="#71717a" text-anchor="end">window</text>

    <rect x="24" y="474" width="342" height="46" rx="12" fill="#ffffff" stroke="#e7e7ea"/>
    <rect x="24" y="474" width="4" height="46" rx="2" fill="#d4d4d8"/>
    <text x="40" y="502" font-size="15" font-weight="600" fill="#18181b">deur</text>
    <text x="350" y="502" font-size="13" fill="#71717a" text-anchor="end">door</text>
  </g>

  <text x="195" y="784" font-size="11" fill="#d4d4d8" text-anchor="middle">Word list</text>
</svg>
